{"title":"Splinter 2008 DVDRip Xvid LKRG","uid":6465419,"size":910558328,"categoryP":"video","categoryS":"movies","magnet":"?xt=urn:btih:54227508de4b12f71f75b270c7ebdfd8daaaa11c&amp;dn=Splinter+2008+DVDRip+Xvid+LKRG&amp;tr=udp%3A%2F%2Ftracker.openbittorrent.com%3A80&amp;tr=udp%3A%2F%2Fopen.demonii.com%3A1337&amp;tr=udp%3A%2F%2Ftracker.coppersurfer.tk%3A6969&amp;tr=udp%3A%2F%2Fexodus.desync.com%3A6969","seeders":1,"leechers":0,"uploader":".BONE.","files":2,"time":1307950093,"description":"PLOT\n\nTrapped in an isolated gas station by a voracious Splinter parasite that transforms its still\nliving victims into deadly hosts, a young couple and an escaped convict must find a way to work\ntogether to survive this primal terror.\n &lt;a href=&quot;\nhttp://www.imdb.com/title/tt1031280/&quot; rel=&quot;nofollow&quot; target=&quot;_NEW&quot;&gt;\nhttp://www.imdb.com/title/tt1031280/&lt;/a&gt;\n\nEncoded By .......: BigPerm1828\nRuntime ..........: 1h 21mn\nFile Size ........: 868 MiB\nResolution .......: 704x396\nIMDb URL .........: http://www.imdb.com/title/tt1031280/\nLanguage .........: English\nVideo\nID : 0\nFormat : MPEG-4 Visual\nFormat profile : Advanced Simple@L5\nFormat settings, BVOP : Yes\nFormat settings, QPel : No\nFormat settings, GMC : No warppoints\nFormat settings, Matrix : Default (H.263)\nCodec ID : XVID\nCodec ID/Hint : XviD\nDuration : 1h 21mn\nBit rate : 1 028 Kbps\nWidth : 704 pixels\nHeight : 396 pixels\nDisplay aspect ratio : 16:9\nFrame rate : 23.976 fps\nColor space : YUV\nChroma subsampling : 4:2:0\nBit depth : 8 bits\nScan type : Progressive\nCompression mode : Lossy\nBits/(Pixel*Frame) : 0.154\nStream size : 603 MiB (69%)\nWriting library : XviD 1.2.1 (UTC 2008-12-04)\n\nAudio\nID : 1\nFormat : AC-3\nFormat/Info : Audio Coding 3\nMode extension : CM (complete main)\nCodec ID : 2000\nDuration : 1h 21mn\nBit rate mode : Constant\nBit rate : 448 Kbps\nChannel(s) : 6 channels\nChannel positions : Front: L C R, Side: L R, LFE\nSampling rate : 48.0 KHz\nBit depth : 16 bits\nCompression mode : Lossy\nVideo delay : 42ms\nStream size : 263 MiB (30%)\nAlignment : Split accross interleaves\nInterleave, duration : 500 ms (11.99 video frames)\nInterleave, preload duration : 500 ms\n &lt;a href=&quot;\nhttp://leetleech.org/images/58216575535787611108.png&quot; rel=&quot;nofollow&quot; target=&quot;_NEW&quot;&gt;\nhttp://leetleech.org/images/58216575535787611108.png&lt;/a&gt;\n &lt;a href=&quot;\nhttp://leetleech.org/images/66536481683933028145.png&quot; rel=&quot;nofollow&quot; target=&quot;_NEW&quot;&gt;\nhttp://leetleech.org/images/66536481683933028145.png&lt;/a&gt;\n &lt;a href=&quot;\nhttp://leetleech.org/images/22382279619229325605.png&quot; rel=&quot;nofollow&quot; target=&quot;_NEW&quot;&gt;\nhttp://leetleech.org/images/22382279619229325605.png&lt;/a&gt;\n &lt;a href=&quot;\nhttp://leetleech.org/images/48810392844486207876.png&quot; rel=&quot;nofollow&quot; target=&quot;_NEW&quot;&gt;\nhttp://leetleech.org/images/48810392844486207876.png&lt;/a&gt;\n\n","torrent":{"xt":"urn:btih:54227508de4b12f71f75b270c7ebdfd8daaaa11c","amp;dn":"Splinter+2008+DVDRip+Xvid+LKRG","amp;tr":["udp%3A%2F%2Ftracker.openbittorrent.com%3A80","udp%3A%2F%2Fopen.demonii.com%3A1337","udp%3A%2F%2Ftracker.coppersurfer.tk%3A6969","udp%3A%2F%2Fexodus.desync.com%3A6969"],"infoHash":"54227508de4b12f71f75b270c7ebdfd8daaaa11c","infoHashBuffer":{"type":"Buffer","data":[84,34,117,8,222,75,18,247,31,117,178,112,199,235,223,216,218,170,161,28]},"announce":[],"urlList":[]}}